<svg xmlns="http://www.w3.org/2000/svg" xmlns:xlink="http://www.w3.org/1999/xlink" version="1.1" id="Layer_1" x="0px" y="0px" width="100%" viewBox="0 0 512 512" enable-background="new 0 0 512 512" xml:space="preserve">
<path fill="none" opacity="1.000000" stroke="none" d=" M513.000000,445.000000   C513.000000,467.651337 513.000000,490.302704 513.000000,512.950073   C342.333313,512.946106 171.666656,512.946106 1.000000,512.946106   C1.000000,490.573914 1.000000,468.255615 1.411988,445.468506   C71.860512,426.035736 140.855301,429.779541 209.209381,454.620087   C208.325546,452.382843 207.234680,450.646484 205.762238,449.340271   C201.732437,445.765320 197.774384,442.038177 193.371765,438.968048   C179.880646,429.560028 166.714905,419.514038 152.453079,411.425720   C134.419525,401.198303 114.818932,394.463257 94.519890,389.682007   C77.778732,385.738800 60.917912,383.181335 43.778992,383.121521   C32.259510,383.081299 26.967081,378.702454 26.974770,366.356171   C27.024170,287.039673 27.000000,207.723160 27.000000,128.406631   C27.000000,126.635475 27.000000,124.864319 27.000000,122.301552   C17.861170,125.007507 9.430585,127.503754 1.000000,130.000000   C1.000000,87.024429 1.000000,44.048855 1.000000,1.036642   C171.545288,1.036642 342.090576,1.036642 513.000000,1.036642   C513.000000,43.686871 513.000000,86.374779 512.596924,129.531235   C503.957245,127.564514 495.720642,125.129242 487.000000,122.550865   C487.000000,125.121902 487.000000,126.935913 487.000000,128.749924   C487.000000,207.223465 487.000000,285.697021 487.000000,364.170563   C487.000000,365.836670 487.145966,367.517883 486.975372,369.166351   C486.098206,377.642059 482.592651,383.376801 472.518433,383.097412   C465.949738,382.915192 459.260742,383.082550 452.791321,384.123169   C438.610291,386.404358 424.364960,388.665863 410.455444,392.165833   C389.170990,397.521515 369.222870,406.517578 350.596802,418.085266   C340.053467,424.633209 329.973938,431.997467 320.119232,439.559265   C314.000671,444.254211 308.694061,450.007263 302.142303,456.105133   C304.589264,455.957855 305.666687,456.145538 306.535797,455.803619   C326.186768,448.072113 346.238708,441.672546 367.252380,439.034943   C385.864410,436.698792 404.517181,434.079926 423.223236,433.304169   C436.740906,432.743622 450.399353,434.754181 463.949127,436.084900   C472.810181,436.955139 481.625671,438.459534 490.394043,440.051697   C497.978821,441.428925 505.468353,443.330322 513.000000,445.000000  M434.408447,364.996948   C444.221405,363.715179 454.034332,362.433441 463.695374,361.171509   C463.695374,259.271240 463.695374,157.216217 463.695374,54.088390   C452.160217,55.768791 441.001984,57.021435 429.994324,59.079430   C410.197906,62.780560 391.181061,69.076653 372.899414,77.562935   C348.804169,88.747871 326.983093,103.425751 307.388397,121.261826   C293.650665,133.766617 281.373566,147.709778 271.088409,163.242325   C269.336914,165.887421 268.130646,169.463654 268.125458,172.612091   C267.970978,266.251770 268.000000,359.891815 268.000000,453.531769   C268.000000,455.283752 268.000000,457.035736 268.000000,458.787750   C268.395264,458.993744 268.790497,459.199707 269.185760,459.405701   C271.910645,456.314911 274.427673,453.006134 277.398254,450.172974   C287.437286,440.598419 297.010193,430.381897 307.937195,421.931213   C321.035309,411.801422 334.841675,402.353821 349.232880,394.180573   C375.422485,379.306458 403.780457,369.988159 434.408447,364.996948  M50.000000,241.500000   C50.000000,281.589142 50.000000,321.678314 50.000000,361.364685   C128.809891,367.005249 193.450882,399.556305 245.341568,459.279572   C245.615417,457.330170 245.975662,455.961334 245.976044,454.592377   C246.002441,359.619476 246.010681,264.646576 245.925964,169.673752   C245.924210,167.705017 245.311157,165.358398 244.141647,163.833542   C238.592987,156.598801 232.833328,149.520538 226.998199,142.511963   C214.842911,127.912239 200.817764,115.309662 185.551941,104.046280   C165.626877,89.345238 144.155197,77.369835 120.700424,69.498390   C105.814896,64.502777 90.475014,60.737392 75.158554,57.201431   C67.463348,55.424915 59.365681,55.391747 50.000000,54.419697   C50.000000,117.112404 50.000000,178.806198 50.000000,241.500000  z"/>
<path fill="#d86f6f" opacity="1.000000" stroke="none" d=" M513.000000,444.531342   C505.468353,443.330322 497.978821,441.428925 490.394043,440.051697   C481.625671,438.459534 472.810181,436.955139 463.949127,436.084900   C450.399353,434.754181 436.740906,432.743622 423.223236,433.304169   C404.517181,434.079926 385.864410,436.698792 367.252380,439.034943   C346.238708,441.672546 326.186768,448.072113 306.535797,455.803619   C305.666687,456.145538 304.589264,455.957855 302.142303,456.105133   C308.694061,450.007263 314.000671,444.254211 320.119232,439.559265   C329.973938,431.997467 340.053467,424.633209 350.596802,418.085266   C369.222870,406.517578 389.170990,397.521515 410.455444,392.165833   C424.364960,388.665863 438.610291,386.404358 452.791321,384.123169   C459.260742,383.082550 465.949738,382.915192 472.518433,383.097412   C482.592651,383.376801 486.098206,377.642059 486.975372,369.166351   C487.145966,367.517883 487.000000,365.836670 487.000000,364.170563   C487.000000,285.697021 487.000000,207.223465 487.000000,128.749924   C487.000000,126.935913 487.000000,125.121902 487.000000,122.550865   C495.720642,125.129242 503.957245,127.564514 512.596924,129.999893   C513.000000,234.687561 513.000000,339.375122 513.000000,444.531342  z"/>
<path fill="#d86f6f" opacity="1.000000" stroke="none" d=" M1.000000,130.468658   C9.430585,127.503754 17.861170,125.007507 27.000000,122.301552   C27.000000,124.864319 27.000000,126.635475 27.000000,128.406631   C27.000000,207.723160 27.024170,287.039673 26.974770,366.356171   C26.967081,378.702454 32.259510,383.081299 43.778992,383.121521   C60.917912,383.181335 77.778732,385.738800 94.519890,389.682007   C114.818932,394.463257 134.419525,401.198303 152.453079,411.425720   C166.714905,419.514038 179.880646,429.560028 193.371765,438.968048   C197.774384,442.038177 201.732437,445.765320 205.762238,449.340271   C207.234680,450.646484 208.325546,452.382843 209.209381,454.620087   C140.855301,429.779541 71.860512,426.035736 1.411988,444.999878   C1.000000,340.312439 1.000000,235.624878 1.000000,130.468658  z"/>
<path fill="#d86f6f" opacity="1.000000" stroke="none" d=" M433.962891,364.998474   C403.780457,369.988159 375.422485,379.306458 349.232880,394.180573   C334.841675,402.353821 321.035309,411.801422 307.937195,421.931213   C297.010193,430.381897 287.437286,440.598419 277.398254,450.172974   C274.427673,453.006134 271.910645,456.314911 269.185760,459.405701   C268.790497,459.199707 268.395264,458.993744 268.000000,458.787750   C268.000000,457.035736 268.000000,455.283752 268.000000,453.531769   C268.000000,359.891815 267.970978,266.251770 268.125458,172.612091   C268.130646,169.463654 269.336914,165.887421 271.088409,163.242325   C281.373566,147.709778 293.650665,133.766617 307.388397,121.261826   C326.983093,103.425751 348.804169,88.747871 372.899414,77.562935   C391.181061,69.076653 410.197906,62.780560 429.994324,59.079430   C441.001984,57.021435 452.160217,55.768791 463.695374,54.088390   C463.695374,157.216217 463.695374,259.271240 463.695374,361.171509   C454.034332,362.433441 444.221405,363.715179 433.962891,364.998474  z"/>
<path fill="#d86f6f" opacity="1.000000" stroke="none" d=" M50.000000,241.000000   C50.000000,178.806198 50.000000,117.112404 50.000000,54.419697   C59.365681,55.391747 67.463348,55.424915 75.158554,57.201431   C90.475014,60.737392 105.814896,64.502777 120.700424,69.498390   C144.155197,77.369835 165.626877,89.345238 185.551941,104.046280   C200.817764,115.309662 214.842911,127.912239 226.998199,142.511963   C232.833328,149.520538 238.592987,156.598801 244.141647,163.833542   C245.311157,165.358398 245.924210,167.705017 245.925964,169.673752   C246.010681,264.646576 246.002441,359.619476 245.976044,454.592377   C245.975662,455.961334 245.615417,457.330170 245.341568,459.279572   C193.450882,399.556305 128.809891,367.005249 50.000000,361.364685   C50.000000,321.678314 50.000000,281.589142 50.000000,241.000000  z"/>
</svg>