<svg xmlns="http://www.w3.org/2000/svg" xmlns:xlink="http://www.w3.org/1999/xlink" version="1.1" id="Layer_1" x="0px" y="0px" width="100%" viewBox="0 0 512 512" enable-background="new 0 0 512 512" xml:space="preserve">
<path fill="none" opacity="1.000000" stroke="none" d=" M16.000000,513.000000   C11.002796,513.000000 6.005591,513.000000 1.006290,513.000000   C1.004194,342.431549 1.004194,171.863113 1.004194,1.000000   C85.021202,1.000000 169.042755,1.000000 253.434174,1.352569   C174.546890,39.979939 95.289742,78.254745 16.352909,116.374855   C16.352909,127.113937 16.352909,137.519745 16.352909,147.710480   C177.065979,147.710480 337.426056,147.710480 497.892761,147.710480   C497.892761,137.119736 497.892761,126.818245 497.892761,116.180756   C491.845886,113.448700 485.665680,110.792381 479.602417,107.891632   C460.905396,98.946671 442.254547,89.905128 423.582794,80.907265   C405.636322,72.258911 387.684784,63.621025 369.737946,54.973484   C351.065979,45.976543 332.366577,37.035816 313.735199,27.955519   C295.453461,19.045605 277.242188,9.991071 259.000000,1.000002   C343.618622,1.000000 428.237274,1.000000 512.927979,1.000000   C512.927979,171.666641 512.927979,342.333313 512.931458,513.000000   C508.270905,513.000000 503.606842,513.000000 498.471405,512.531372   C498.000000,499.133820 498.000000,486.204956 498.000000,473.296082   C337.059662,473.296082 176.630325,473.296082 16.000000,473.296082   C16.000000,486.727448 16.000000,499.863739 16.000000,513.000000  M426.500000,177.000000   C296.414856,177.000000 166.329727,177.000000 36.277115,177.000000   C36.277115,189.955200 36.277115,202.360260 36.277115,215.160492   C48.959023,215.160492 61.368813,215.160492 74.162125,215.160492   C74.162125,268.295013 74.162125,321.030884 74.162125,373.719727   C100.295448,373.719727 126.032440,373.719727 152.162415,373.719727   C152.162415,320.704712 152.162415,267.968842 152.162415,215.280884   C174.296295,215.280884 196.033676,215.280884 218.163574,215.280884   C218.163574,268.296478 218.163574,321.032318 218.163574,373.718994   C244.296906,373.718994 270.033905,373.718994 296.163879,373.718994   C296.163879,320.703247 296.163879,267.967377 296.163879,215.281616   C318.297760,215.281616 340.035126,215.281616 362.165039,215.281616   C362.165039,268.297943 362.165039,321.033813 362.165039,373.718262   C388.298401,373.718262 414.035400,373.718262 440.165344,373.718262   C440.165344,320.701782 440.165344,267.965912 440.165344,214.833038   C452.965607,214.833038 465.375397,214.833038 477.713623,214.833038   C477.713623,202.025940 477.713623,189.620667 477.713623,177.000000   C460.785431,177.000000 444.142731,177.000000 426.500000,177.000000  M258.500000,403.000000   C186.407410,403.000000 114.314827,403.000000 42.288532,403.000000   C42.288532,416.977325 42.288532,430.382965 42.288532,443.715118   C185.643738,443.715118 328.710236,443.715118 471.711456,443.715118   C471.711456,430.022675 471.711456,416.617004 471.711456,403.000000   C400.782074,403.000000 330.141052,403.000000 258.500000,403.000000  z"/>
<path fill="#d86f6f" opacity="1.000000" stroke="none" d=" M258.583344,1.000002   C277.242188,9.991071 295.453461,19.045605 313.735199,27.955519   C332.366577,37.035816 351.065979,45.976543 369.737946,54.973484   C387.684784,63.621025 405.636322,72.258911 423.582794,80.907265   C442.254547,89.905128 460.905396,98.946671 479.602417,107.891632   C485.665680,110.792381 491.845886,113.448700 497.892761,116.180756   C497.892761,126.818245 497.892761,137.119736 497.892761,147.710480   C337.426056,147.710480 177.065979,147.710480 16.352909,147.710480   C16.352909,137.519745 16.352909,127.113937 16.352909,116.374855   C95.289742,78.254745 174.546890,39.979939 253.902023,1.352569   C255.388901,1.000000 256.777802,1.000000 258.583344,1.000002  z"/>
<path fill="#d86f6f" opacity="1.000000" stroke="none" d=" M16.468658,513.000000   C16.000000,499.863739 16.000000,486.727448 16.000000,473.296082   C176.630325,473.296082 337.059662,473.296082 498.000000,473.296082   C498.000000,486.204956 498.000000,499.133820 498.000000,512.531372   C337.645782,513.000000 177.291550,513.000000 16.468658,513.000000  z"/>
<path fill="#d86f6f" opacity="1.000000" stroke="none" d=" M427.000000,177.000000   C444.142731,177.000000 460.785431,177.000000 477.713623,177.000000   C477.713623,189.620667 477.713623,202.025940 477.713623,214.833038   C465.375397,214.833038 452.965607,214.833038 440.165344,214.833038   C440.165344,267.965912 440.165344,320.701782 440.165344,373.718262   C414.035400,373.718262 388.298401,373.718262 362.165039,373.718262   C362.165039,321.033813 362.165039,268.297943 362.165039,215.281616   C340.035126,215.281616 318.297760,215.281616 296.163879,215.281616   C296.163879,267.967377 296.163879,320.703247 296.163879,373.718994   C270.033905,373.718994 244.296906,373.718994 218.163574,373.718994   C218.163574,321.032318 218.163574,268.296478 218.163574,215.280884   C196.033676,215.280884 174.296295,215.280884 152.162415,215.280884   C152.162415,267.968842 152.162415,320.704712 152.162415,373.719727   C126.032440,373.719727 100.295448,373.719727 74.162125,373.719727   C74.162125,321.030884 74.162125,268.295013 74.162125,215.160492   C61.368813,215.160492 48.959023,215.160492 36.277115,215.160492   C36.277115,202.360260 36.277115,189.955200 36.277115,177.000000   C166.329727,177.000000 296.414856,177.000000 427.000000,177.000000  z"/>
<path fill="#d86f6f" opacity="1.000000" stroke="none" d=" M259.000000,403.000000   C330.141052,403.000000 400.782074,403.000000 471.711456,403.000000   C471.711456,416.617004 471.711456,430.022675 471.711456,443.715118   C328.710236,443.715118 185.643738,443.715118 42.288532,443.715118   C42.288532,430.382965 42.288532,416.977325 42.288532,403.000000   C114.314827,403.000000 186.407410,403.000000 259.000000,403.000000  z"/>
</svg>