<?xml version="1.0" encoding="utf-8" standalone="no"?>
<!DOCTYPE svg PUBLIC "-//W3C//DTD SVG 1.1//EN" "http://www.w3.org/Graphics/SVG/1.1/DTD/svg11.dtd">
<svg version="1.1" xmlns="http://www.w3.org/2000/svg" height="521.1" width="290" xmlns:xlink="http://www.w3.org/1999/xlink">
<defs>
<linearGradient id="linearGradient4798" y2="316.65" gradientUnits="userSpaceOnUse" x2="169.78" y1="317.29" x1="61.277"><stop stop-color="#ffd5d5" offset="0"/><stop stop-color="#808080" offset="1"/></linearGradient>
<linearGradient id="linearGradient4615-3" y2="43.754" xlink:href="#linearGradient4798" gradientUnits="userSpaceOnUse" x2="22.741" gradientTransform="translate(32.217 .14321)" y1="22.845" x1="22.741"/>
<linearGradient id="linearGradient4645" y2="43.754" xlink:href="#linearGradient4798" gradientUnits="userSpaceOnUse" x2="22.741" gradientTransform="translate(0 .14321)" y1="22.845" x1="22.741"/>
<filter id="filter1981" style="color-interpolation-filters:sRGB" height="1.0636" width="4.2448" y="-.031812" x="-1.6224"><feGaussianBlur stdDeviation="2.6386437"/></filter>
<filter id="filter1875" style="color-interpolation-filters:sRGB" height="3.7831" width="1.5871" y="-1.3916" x="-.29353"><feGaussianBlur stdDeviation="12.221292"/></filter>
<filter id="filter2059" style="color-interpolation-filters:sRGB" height="1.4169" width="1.7567" y="-.20845" x="-.37833"><feGaussianBlur stdDeviation="2.2032458"/></filter>
<filter id="filter2096" style="color-interpolation-filters:sRGB" height="1.4169" width="1.7567" y="-.20845" x="-.37833"><feGaussianBlur stdDeviation="2.2032458"/></filter>
<filter id="filter1605-7" style="color-interpolation-filters:sRGB" height="1.1667" width="3.736" y="-.083365" x="-1.368"><feGaussianBlur stdDeviation="5.0966672"/></filter>
<filter id="filter1753-3" style="color-interpolation-filters:sRGB" height="1.1673" width="3.5988" y="-.083661" x="-1.2994"><feGaussianBlur stdDeviation="2.7473602"/></filter>
<filter id="filter1605" style="color-interpolation-filters:sRGB" height="1.1667" width="3.736" y="-.083365" x="-1.368"><feGaussianBlur stdDeviation="5.0966672"/></filter>
<filter id="filter1753" style="color-interpolation-filters:sRGB" height="1.1673" width="3.5988" y="-.083661" x="-1.2994"><feGaussianBlur stdDeviation="2.7473602"/></filter>
<filter id="filter1981-6" style="color-interpolation-filters:sRGB" height="1.0636" width="4.2448" y="-.031812" x="-1.6224"><feGaussianBlur stdDeviation="2.6386437"/></filter>
</defs>
<g transform="translate(.00064672 -71.969)" fill="#252525">
<g transform="matrix(1.0106,0,0,1.0106,-39.107,-86.39)">
<g transform="translate(-1.6699,4.4271)">
<rect y="627.74" width="13.436" height="35.357" x="71.611"/>
<rect height="20.369" width="2.7956" y="647.54" x="83.278" stroke-width="1.0802"/>
</g>
<rect transform="scale(-1,1)" height="35.357" width="13.436" y="632.17" x="-294.42"/>
<rect transform="scale(-1,1)" height="20.369" width="2.7956" y="651.97" x="-282.75" stroke-width="1.0802"/>
</g>
<rect y="539.39" width="8.5453" x="262.71" height="33.086"/>
<rect y="539.47" width="8.5453" x="18.747" height="33.086"/>
</g>
<g transform="translate(.00064672 -71.969)">
<path d="m14.969 521.52v18.414h12.104v32.616h235.85v-32.562h12.033v-18.414z" fill="#121212"/>
<rect height="13.046" width="236.06" y="539.94" x="27.073" fill="#252525"/>
<path stroke-width="3.8195" d="m12.386 520.35 2.6414 20.23 18.674 24.802 110.04 0.9472v0.0212l1.2591-0.0115 1.2591 0.0115v-0.0212l110.04-0.9472 18.677-24.802 2.6395-20.23-4.1487 0.39658-1.2783 9.2199-84.735 0.59103-0.004-0.29071v-9.5201h-5.2827v4.9592l0.22332 14.451h-74.77l0.22332-14.451v-4.9592h-5.2808v9.5201l-0.004 0.29071-84.728-0.5882-1.278-9.2203zm6.0203 13.887 25.901 0.077v27.28l-7.587-0.0905-17.544-21.716zm253.18 0-0.77009 5.5505-17.543 21.716-7.587 0.0905v-27.28zm-222.83 0.0886 26.751 0.0789v27.563l-27.234-0.32536zm192.48 0 0.48324 27.317-27.234 0.32536v-27.563zm-161.54 0.0924 22.808 0.0674-0.32728 27.802-22.941-0.27531zm130.6 0 0.45819 27.594-22.939 0.27531-0.32728-27.802zm-102.74 9.3257 37.441 0.18675 37.439-0.18675 0.28686 18.544-37.726 0.38313-37.728-0.38313z" fill="#333"/>
</g>
<g transform="matrix(3.8195 0 0 3.8195 -260.81 -450.47)">
<g transform="matrix(1 0 0 .95055 0 8.1908)">
<path stroke-width=".99774" d="m87.825 217.02v22.359h36.843v-22.36h-18.437z" fill="#101010"/>
<g transform="matrix(1,0,0,1.0029,3.7461e-5,-0.69102)">
<path d="m69.367 165.65-1.0834 40.05 0.21899 23.666h21.595l0.04731-4.3278c0-2.4371-0.53419-5.5611 5.328-5.5727h21.549c5.8622 0.0116 5.328 3.1356 5.328 5.5727l0.0466 4.3278h21.595l0.21831-23.666-1.0834-40.05h-36.895z" fill="#ccc"/>
<path d="m118.23 222.82 0.26181 9.3648-1.0473 7.0236 3.7963 0.48201 1.3091-8.9516-0.17105-11.327-8.8616-0.17215c4.13 0.29078 4.563 1.6107 4.7127 3.5807z" fill="#1a1a1a"/>
<path d="m94.271 222.82-0.26181 9.3648 1.0473 7.0236-3.7963 0.48201-1.3091-8.9516 0.23389-11.327 8.7987-0.17215c-4.13 0.29078-4.563 1.6107-4.7127 3.5807z" fill="#1a1a1a"/>
</g>
<path fill-opacity=".99554" d="m68.385 215.16 0.0179 2.8428h75.667l0.0448-2.8428h-37.851z" fill="#f00"/>
<rect ry="0" height="7.8173" width="75.566" y="207.34" x="68.457" fill="#c4c4c4"/>
<rect ry="0" height="1.9438" width="75.566" y="205.75" x="68.457" fill="#c7c7c7"/>
<g transform="translate(-.067985 1.6526)" fill="#d0d0d0">
<rect y="207.56" width="2.4346" height="2.5778" x="70.002"/>
<rect y="207.56" width="2.4346" height="2.5778" x="140.19"/>
</g>
<path stroke-width="1.0636" d="m68.352 217.97 0.05063 9.0875h21.721l0.05677-3.5295c-0.0017-4.4833 4.7481-3.9011 4.7481-3.9011s7.562 0.0252 11.343 0.0252 11.343-0.0252 11.343-0.0252 4.6865-0.58226 4.6847 3.9011l0.0127 3.5295h21.828v-9.09h-37.869z" fill="#000080"/>
</g>
<g transform="matrix(.26181 0 0 .26181 68.285 104.13)">
<rect height="75.068" width="8.4846" y="127.26" x="140.76" stroke-width="3.1156" fill="#333"/>
<g stroke="#333" transform="matrix(3.8195,0,0,2.5414,-260.76,-204.93)" fill="none">
<path stroke-width=".26181px" d="m105.22 116.48-2.517 11.314"/>
<path stroke-width=".18783px" d="m105.22 116.48-6.9658-4.403"/>
<path stroke-width=".26181px" d="m107.34 116.5 2.4479 11.291"/>
<path stroke-width=".18783px" d="m107.34 116.5 6.8733-4.4262"/>
<path stroke-width=".18217px" d="m100.17 118.18c3.8857-2.2293 7.9184-2.3547 12.125 0"/>
</g>
<g transform="matrix(4.4654,0,0,4.4654,-302.53,-471.18)">
<g stroke="#333" stroke-width=".68072" transform="matrix(1.4075,0,0,1.4075,-49.007,4.8121)" fill="none">
<path d="m96.793 80.282h18.447"/>
<path d="m96.907 80.282c-3.4363 0-5.3688 3.1472-5.3688 3.1472"/>
<path d="m115.14 80.282c3.4363 0 5.3688 3.1472 5.3688 3.1472"/>
</g>
<g transform="matrix(1 0 0 .66537 .16223 50.471)">
<rect height="4.6383" width="7.0939" y="121.51" x="96.674" fill="#333"/>
<g stroke="#333" stroke-width=".61682" transform="translate(.34378)" fill="none">
<path d="m90.919 101.64 5.9278 21.424"/>
<path d="m108.51 101.64-5.6006 21.424"/>
</g>
</g>
<path stroke="#333" stroke-width=".51027" d="m100.23 118.06v13.557" fill="none"/>
</g>
<rect opacity=".99" height="5.2679" width="9.9158" y="56.006" x="140.04" stroke-width="3.8195" fill="#333"/>
<g transform="matrix(3.8195,0,0,3.8195,-260.8,-326.67)" fill="#333">
<rect opacity=".99" height="1.3792" width="2.5961" y="100.15" x="94.855"/>
<rect opacity=".99" height="1.3792" width="2.5961" y="100.19" x="115.04"/>
</g>
</g>
<path d="m104.82 143.97c-2.9335-0.0123-10.48 0.1843-23.916 1.954-2.4185 1.9541-11.536 15.068-11.536 19.732h73.759c0-4.3696-9.1175-17.778-11.536-19.732-13.436-1.7697-20.983-1.9663-23.916-1.954-1.0049 0.0497-2.1301 0.004-2.855 0zm1.4119 0.98949v0.00067c0.001-0.00002 0.0144 0.00003 0.0156 0 0.001 0.00003 0.0145-0.00002 0.0155 0v-0.00067c0.65486-0.014 11.654-0.23869 16.659 0.39742 2.5611 0.48782 4.7805 2.1447 5.9147 3.128 0.2937 0.28342 1.0569 0.70698-0.14667 0.70698l-22.427-0.24873v-0.00067h-0.0311c0.0356 0.0164-22.427 0.2494-22.427 0.2494-1.2036 0-0.44037-0.42356-0.14667-0.70698 1.1342-0.98333 3.3536-2.6402 5.9147-3.128 6.0065-0.43377 16.766-0.37519 16.659-0.39742z" fill="#686868"/>
<path d="m70.047 162.63s-0.63673 1.4939-0.68042 3.0232l-0.39067 14.482 37.255 36.849v0.0311l0.0155-0.0155 0.0156 0.0155v-0.03l37.253-36.849-0.38854-14.482c-0.0216-1.4058-0.75732-3.0342-0.75732-3.0342z" fill="#efef00"/>
<rect rx="3.7797" ry="3.7797" height="7.5594" width="15.599" y="206.22" x="122.09" fill="#999"/>
<path d="m126.04 206.22c-2.1842-0.00007-3.9548 1.7022-3.9546 3.8019 0.00021 2.0994 1.6857 3.7626 3.8696 3.7626l4.0014-0.0212v-7.5484z" fill="#b8b8b8"/>
<rect y="234.81" width="30.348" x="91.072" height=".98181"/>
<path stroke-width=".88036" d="m90.128 223.81-0.03084 4.3107 1.3105 7.8325-20.537 0.0676c-1.2435-2.2029-2.4927-7.8999-2.4927-7.8999v-4.3107z" fill="#686868"/>
<path stroke-width=".88036" d="m122.31 223.81 0.0479 4.3107-1.2657 7.8325 20.537 0.0676c1.2435-2.2029 2.4927-7.8999 2.4927-7.8999v-4.3107z" fill="#686868"/>
<rect rx="0" ry=".39979" height=".79959" width="21.094" y="191.82" x="117.03" fill="#00ef00"/>
<rect ry="3.7797" rx="3.7797" transform="scale(-1,1)" height="7.5594" width="15.599" y="206.22" x="-90.403" fill="#999"/>
<path d="m86.448 206.22c2.1842-0.00007 3.9548 1.7022 3.9546 3.8019-0.000206 2.0994-1.6857 3.7626-3.8696 3.7626l-4.0014-0.0212v-7.5484z" fill="#b8b8b8"/>
<rect ry=".39979" rx="0" transform="scale(-1,1)" height=".79959" width="21.094" y="191.82" x="-95.458" fill="#00ef00"/>
<path fill-opacity=".97321" d="m131.69 191.82h6.0416c0.22149 0 0.39979 0.17831 0.39979 0.39979 0 0.22149-0.17831 0.39979-0.39979 0.39979h-6.8372z" fill="#b3b3b3"/>
<path fill-opacity=".97321" d="m80.79 191.82h-6.0416c-0.22149 0-0.39979 0.17831-0.39979 0.39979 0 0.22149 0.17831 0.39979 0.39979 0.39979h6.8372z" fill="#b3b3b3"/>
<path d="m104.49 230.05h3.2271v1.554c0 1.055-0.80776 1.4425-1.4245 1.4425h-1.0884c-0.61195 0-0.71414-0.53494-0.71414-0.81497z" fill="#333"/>
<g transform="matrix(.23717 0 0 .23717 57.582 93.107)">
<circle cy="493" cx="88.768" r="13.732" fill="#b2dcd6"/>
<circle cy="493" cx="120.81" r="13.732" fill="#b2dcd6"/>
<circle cy="493" cx="120.65" r="10.07" fill="#ffffe0"/>
<circle fill-opacity=".42188" cy="493" cx="88.8" r="10.07" fill="#f00"/>
</g>
<g transform="matrix(-.23717 0 0 .23717 154.82 93.107)">
<circle cy="493" cx="88.768" r="13.732" fill="#b2dcd6"/>
<circle cy="493" cx="120.81" r="13.732" fill="#b2dcd6"/>
<circle cy="493" cx="120.65" r="10.07" fill="#ffffe0"/>
<circle fill-opacity=".42188" cy="493" cx="88.8" r="10.07" fill="#f00"/>
</g>
<g stroke-width=".28684px" transform="scale(.92242 1.0841)">
<g stroke-width=".076192px" transform="scale(1.0841 .92242)">
<path d="m102.68 208.44-0.0127-1.5143-0.83176 1.5143zm1.5683 0.727h-0.6254v0.91112h-0.94287v-0.91h-1.6762v-0.727l1.6445-2.8604h0.97462v2.8604h0.6254z"/>
<path d="m106.75 207.83q0-1.7016-0.58096-1.7016-0.57778 0-0.57778 1.7016 0 1.6921 0.57778 1.6921 0.58096 0 0.58096-1.6921zm1.0064 0q0 0.9778-0.32382 1.581-0.40953 0.76191-1.2826 0.76191-0.84445 0-1.2476-0.76191-0.31747-0.60318-0.31747-1.581 0-0.97461 0.31747-1.5841 0.40318-0.76827 1.2476-0.76827 0.87303 0 1.2826 0.76827 0.32382 0.60318 0.32382 1.5841z"/>
<path d="m109.92 208.44-0.0127-1.5143-0.83176 1.5143zm1.5683 0.727h-0.62541v0.91112h-0.94287v-0.91h-1.6762v-0.727l1.6445-2.8604h0.97462v2.8604h0.62541z"/>
</g>
</g>
<path stroke="#2b2b2b" stroke-width=".265" d="m122.15 229.37h21.595" fill="none"/>
<path stroke="#2b2b2b" stroke-width=".265" d="m90.309 229.37h-21.595" fill="none"/>
<g transform="translate(-.39643)">
<g fill="#333">
<rect y="218.62" width="12.404" x="100.19" height="4.4431"/>
<rect y="229.86" width="3.2727" x="109.2" height="1.9309"/>
<rect y="223.64" width="12.273" x="100.26" height="6.4145"/>
</g>
<g stroke-linejoin="bevel" transform="translate(147.03 .76087)" stroke="#232323" stroke-linecap="round" stroke-width=".78544">
<circle cy="225.79" cx="-43.93" r="2.291" fill="#2c2c2c"/>
<circle cy="225.79" cx="-37.335" r="2.291" fill="#1a1a1a"/>
</g>
<path d="m112.5 229.73-3.3054 2.0291 3.6327 0.39272z" fill="#3f3f3f"/>
<path d="m109.2 231.76-0.58908 3.3709-0.78544 0.55636-0.0327 0.58908 5.3018-0.0982-0.26182-4.0254-3.6327-0.39272" fill="#2c2c2c"/>
<rect height=".75272" width="10.473" y="222.99" x="101.16" fill="#1a1a1a"/>
</g>
<circle cy="231.57" cx="106.25" r="1.369" fill="#8a8a8a"/>
<circle cy="230.95" cx="106.25" r=".28395" fill="#5c5c5c"/>
<circle cy="232.13" cx="106.25" r=".28395" fill="#5c5c5c"/>
</g>
<g stroke-opacity=".95536" transform="matrix(3.8195 0 0 3.8195 -.076172 99.431)" stroke="#000" stroke-linecap="round" stroke-width=".79374">
<rect ry="3.6456" height="20.658" width="30.785" y="22.827" x="6.4811" fill="url(#linearGradient4645)"/>
<rect ry="3.6456" height="20.658" width="30.785" y="22.827" x="38.698" fill="url(#linearGradient4615-3)"/>
</g>
<g transform="matrix(3.8195 0 0 3.8195 .0017247 99.431)" fill="#808080">
<rect y="44.326" width="1.2889" x="21.028" height=".93088"/>
<path stroke-width=".34737" d="m23.145 43.31 8.1564-10.171-0.02577 1.0672s-7.6269 9.5588-7.6249 9.5189z" transform="translate(.2022 1.5875)" fill="#808080"/>
<rect transform="matrix(-.00045058 1 .99215 -.12509 .2022 1.5875)" height=".53873" width="9.607" y="31.305" x="33.171" stroke-width=".1792" fill="#808080"/>
<path stroke="#808080" stroke-width=".25421px" d="m24.658 45.274 6.9616-8.446" fill="none"/>
<path stroke="#808080" stroke-width=".26458px" d="m24.658 45.274-0.787-0.178" fill="#808080"/>
<g transform="matrix(-1,0,0,1,75.924,0)">
<rect y="44.326" width="1.2889" x="21.028" height=".93088"/>
<path stroke-width=".34737" d="m23.145 43.31 8.1564-10.171-0.02577 1.0672s-7.6269 9.5588-7.6249 9.5189z" transform="translate(.2022 1.5875)" fill="#808080"/>
<rect transform="matrix(-.00045058 1 .99215 -.12509 .2022 1.5875)" height=".53873" width="9.607" y="31.305" x="33.171" stroke-width=".1792" fill="#808080"/>
<path stroke="#808080" stroke-width=".25421px" d="m24.658 45.274 6.9616-8.446" fill="none"/>
<path stroke="#808080" stroke-width=".26458px" d="m24.658 45.274-0.787-0.178" fill="#808080"/>
</g>
</g>
<rect fill-opacity=".12195" transform="matrix(.44880 0 0 1.0001 79.924 2.0206)" height="199.07" filter="url(#filter1981)" width="3.9033" y="176.83" x="143.05" fill="#ececec"/>
<g transform="translate(.32368)">
<g transform="translate(1.1653e-7 .0000054506)">
<rect transform="matrix(.52615 .063645 -.023909 1.0268 7.8222 -5.612)" height="146.35" filter="url(#filter1605)" width="5.9241" y="188.67" x="11.129" fill="#ececec"/>
<rect fill-opacity=".26829" height="78.815" filter="url(#filter1753)" width="5.0743" y="335.33" x="4.684" fill="#878787"/>
</g>
<g transform="matrix(-1 0 0 1 142.15 20.734)">
<rect transform="matrix(.52615 .063645 -.023909 1.0268 -139.38 -26.346)" height="146.35" filter="url(#filter1605-7)" width="5.9241" y="188.67" x="11.129" fill="#ececec"/>
<rect fill-opacity=".26829" height="78.815" filter="url(#filter1753-3)" width="5.0743" y="314.6" x="-142.52" fill="#878787"/>
</g>
</g>
<rect fill-opacity=".26829" transform="matrix(1.8679 0 0 .64518 -16.86 59.556)" height="21.078" filter="url(#filter1875)" width="99.925" y="157.31" x="36.691" fill="#ececec"/>
<g transform="translate(3.781 .0000054506)" fill="#4f4f4f">
<rect fill-opacity=".4549" transform="rotate(-17.839 -8.8483 5.5701)" height="24.456" filter="url(#filter2059)" width="6.8122" y="403.68" x="-127.3"/>
<rect fill-opacity=".45349" transform="matrix(-.95192 -.30635 -.30635 .95192 284.57 -2.4428)" height="24.456" filter="url(#filter2096)" width="6.8122" y="403.68" x="-127.3"/>
</g>
<rect fill-opacity=".66667" transform="matrix(.44880 0 0 1.0001 79.924 2.0206)" height="199.07" filter="url(#filter1981-6)" width="3.9033" y="176.83" x="143.05" fill="#ececec"/>
</svg>
