<svg version="1.1" id="Layer_1" xmlns="http://www.w3.org/2000/svg" xmlns:xlink="http://www.w3.org/1999/xlink" x="0px" y="0px"
	 width="100%" viewBox="0 0 512 512" enable-background="new 0 0 512 512" xml:space="preserve">
<path fill="#FFFFFF" opacity="1.000000" stroke="none" 
	d="
M513.000000,434.000000 
	C513.000000,439.022095 513.000000,444.044189 512.705200,449.245758 
	C504.728241,459.261841 497.017365,460.534637 485.667999,453.096466 
	C483.052185,463.480438 477.978882,466.382355 471.253998,466.929291 
	C461.283478,467.740265 454.074738,460.967987 454.055237,448.584229 
	C453.942230,376.782959 454.000000,304.981415 454.000000,233.179947 
	C454.000000,231.473969 454.000000,229.767990 454.000000,227.182373 
	C446.964050,231.382645 440.912354,234.991669 434.864227,238.606613 
	C417.481812,248.996017 400.081329,259.355499 382.724060,269.786804 
	C360.959778,282.866638 339.215363,295.979767 317.492096,309.127686 
	C296.996094,321.532806 276.576233,334.064178 256.043762,346.408447 
	C248.918472,350.692261 241.811859,353.502930 233.459732,348.204956 
	C218.669983,338.823517 203.484238,330.065430 188.447113,321.075043 
	C171.208130,310.768188 153.922501,300.539093 136.708054,290.191528 
	C114.802994,277.024414 92.951645,263.767944 71.072105,250.558365 
	C55.108967,240.920731 39.077595,231.394272 23.196280,221.623779 
	C15.653489,216.983292 8.390016,211.888809 1.000002,207.000000 
	C1.000000,201.977905 1.000000,196.955811 1.356952,191.465546 
	C12.918902,183.746109 23.982658,176.264145 35.361946,169.297607 
	C52.493858,158.809235 69.884789,148.745026 87.096367,138.385468 
	C113.815750,122.303223 140.481125,106.131203 167.161392,89.984001 
	C189.443436,76.498650 211.696381,62.965073 234.001480,49.517971 
	C239.911148,45.955193 246.091568,45.961243 251.952240,49.498573 
	C266.960358,58.556992 281.773804,67.938766 296.808594,76.951881 
	C324.373322,93.476494 352.084686,109.756493 379.654755,126.272224 
	C410.544464,144.776550 441.261810,163.570114 472.238068,181.927475 
	C481.002380,187.121429 485.365936,193.205750 485.265137,204.221024 
	C484.710236,264.860687 485.000000,325.508087 485.000000,386.152832 
	C485.000000,387.964752 485.000000,389.776672 485.000000,392.284027 
	C488.776459,392.533630 492.405487,392.327423 495.807526,393.109009 
	C500.255280,394.130859 504.594086,395.760864 508.832764,397.489685 
	C510.432892,398.142303 511.622986,399.800293 513.000000,401.000000 
	C513.000000,406.022095 513.000000,411.044189 512.707153,416.245361 
	C509.690948,418.979370 506.967651,421.534332 504.171143,424.157990 
	C504.836792,425.265564 505.450745,426.816345 506.514099,427.942932 
	C508.540558,430.089874 510.823517,431.994659 513.000000,434.000000 
z"/>
<path fill="none" opacity="1.000000" stroke="none" 
	d="
M1.000002,207.468658 
	C8.390016,211.888809 15.653489,216.983292 23.196280,221.623779 
	C39.077595,231.394272 55.108967,240.920731 71.072105,250.558365 
	C92.951645,263.767944 114.802994,277.024414 136.708054,290.191528 
	C153.922501,300.539093 171.208130,310.768188 188.447113,321.075043 
	C203.484238,330.065430 218.669983,338.823517 233.459732,348.204956 
	C241.811859,353.502930 248.918472,350.692261 256.043762,346.408447 
	C276.576233,334.064178 296.996094,321.532806 317.492096,309.127686 
	C339.215363,295.979767 360.959778,282.866638 382.724060,269.786804 
	C400.081329,259.355499 417.481812,248.996017 434.864227,238.606613 
	C440.912354,234.991669 446.964050,231.382645 454.000000,227.182373 
	C454.000000,229.767990 454.000000,231.473969 454.000000,233.179947 
	C454.000000,304.981415 453.942230,376.782959 454.055237,448.584229 
	C454.074738,460.967987 461.283478,467.740265 471.253998,466.929291 
	C477.978882,466.382355 483.052185,463.480438 485.667999,453.096466 
	C497.017365,460.534637 504.728241,459.261841 512.705200,449.712616 
	C513.000000,470.989563 513.000000,491.979126 513.000000,512.984375 
	C342.428589,512.984375 171.857193,512.984375 1.000000,512.984375 
	C1.000000,411.312622 1.000000,309.624969 1.000002,207.468658 
M299.346069,353.968048 
	C288.019226,360.687988 276.787445,367.574921 265.341797,374.086029 
	C250.678421,382.427582 235.546082,382.535980 220.982819,374.313263 
	C204.611847,365.069946 188.737045,354.948303 172.638901,345.221191 
	C154.208847,334.085052 135.781754,322.943970 117.329918,311.843994 
	C110.730972,307.874298 104.063560,304.018463 97.997902,300.446594 
	C97.997902,319.867828 97.136963,338.986237 98.238487,357.990906 
	C99.354301,377.242065 109.299004,393.113098 121.821060,407.249298 
	C136.464325,423.780243 155.067459,434.714294 175.349380,442.555634 
	C193.684860,449.644440 212.828293,453.861206 232.663071,453.991943 
	C240.162247,454.041382 247.688477,454.397156 255.154861,453.899872 
	C264.579651,453.272186 274.175415,452.850464 283.313660,450.705200 
	C316.741364,442.857880 346.959106,429.001770 369.085938,401.378540 
	C380.664337,386.924042 387.906433,370.431000 388.820221,351.924133 
	C389.664368,334.828278 388.999908,317.657928 388.999908,300.102936 
	C387.051849,301.096954 385.308197,301.856171 383.694305,302.830322 
	C366.768341,313.046814 349.861908,323.295624 332.952667,333.539795 
	C321.955536,340.202271 310.962769,346.871887 299.346069,353.968048 
z"/>
<path fill="none" opacity="1.000000" stroke="none" 
	d="
M513.000000,400.531342 
	C511.622986,399.800293 510.432892,398.142303 508.832764,397.489685 
	C504.594086,395.760864 500.255280,394.130859 495.807526,393.109009 
	C492.405487,392.327423 488.776459,392.533630 485.000000,392.284027 
	C485.000000,389.776672 485.000000,387.964752 485.000000,386.152832 
	C485.000000,325.508087 484.710236,264.860687 485.265137,204.221024 
	C485.365936,193.205750 481.002380,187.121429 472.238068,181.927475 
	C441.261810,163.570114 410.544464,144.776550 379.654755,126.272224 
	C352.084686,109.756493 324.373322,93.476494 296.808594,76.951881 
	C281.773804,67.938766 266.960358,58.556992 251.952240,49.498573 
	C246.091568,45.961243 239.911148,45.955193 234.001480,49.517971 
	C211.696381,62.965073 189.443436,76.498650 167.161392,89.984001 
	C140.481125,106.131203 113.815750,122.303223 87.096367,138.385468 
	C69.884789,148.745026 52.493858,158.809235 35.361946,169.297607 
	C23.982658,176.264145 12.918902,183.746109 1.356952,190.998688 
	C1.000000,127.691780 1.000000,64.383560 1.000000,1.037672 
	C171.573868,1.037672 342.147736,1.037672 513.000000,1.037672 
	C513.000000,134.020767 513.000000,267.041718 513.000000,400.531342 
z"/>
<path fill="none" opacity="1.000000" stroke="none" 
	d="
M513.000000,433.532410 
	C510.823517,431.994659 508.540558,430.089874 506.514099,427.942932 
	C505.450745,426.816345 504.836792,425.265564 504.171143,424.157990 
	C506.967651,421.534332 509.690948,418.979370 512.707153,416.712219 
	C513.000000,422.354919 513.000000,427.709869 513.000000,433.532410 
z"/>
<path fill="#FFFFFF" opacity="1.000000" stroke="none" 
	d="
M299.657043,353.753174 
	C310.962769,346.871887 321.955536,340.202271 332.952667,333.539795 
	C349.861908,323.295624 366.768341,313.046814 383.694305,302.830322 
	C385.308197,301.856171 387.051849,301.096954 388.999908,300.102936 
	C388.999908,317.657928 389.664368,334.828278 388.820221,351.924133 
	C387.906433,370.431000 380.664337,386.924042 369.085938,401.378540 
	C346.959106,429.001770 316.741364,442.857880 283.313660,450.705200 
	C274.175415,452.850464 264.579651,453.272186 255.154861,453.899872 
	C247.688477,454.397156 240.162247,454.041382 232.663071,453.991943 
	C212.828293,453.861206 193.684860,449.644440 175.349380,442.555634 
	C155.067459,434.714294 136.464325,423.780243 121.821060,407.249298 
	C109.299004,393.113098 99.354301,377.242065 98.238487,357.990906 
	C97.136963,338.986237 97.997902,319.867828 97.997902,300.446594 
	C104.063560,304.018463 110.730972,307.874298 117.329918,311.843994 
	C135.781754,322.943970 154.208847,334.085052 172.638901,345.221191 
	C188.737045,354.948303 204.611847,365.069946 220.982819,374.313263 
	C235.546082,382.535980 250.678421,382.427582 265.341797,374.086029 
	C276.787445,367.574921 288.019226,360.687988 299.657043,353.753174 
z"/>
</svg>